<svg width="96" height="96" xmlns="http://www.w3.org/2000/svg" xmlns:xlink="http://www.w3.org/1999/xlink" xml:space="preserve" overflow="hidden"><g transform="translate(-181 -289)"><path d="M240.3 326.3C236.1 326.3 232.8 322.9 232.8 318.8 232.8 314.7 236.2 311.3 240.3 311.3 244.5 311.3 247.8 314.7 247.8 318.8 247.8 322.9 244.4 326.3 240.3 326.3ZM257.2 314.1C256.8 312.7 256.3 311.4 255.6 310.2L257.2 305.5 253.6 301.9 248.9 303.5C247.7 302.8 246.4 302.3 245 301.9L242.8 297.5 237.8 297.5 235.6 301.9C234.2 302.3 232.9 302.8 231.7 303.5L227 301.9 223.4 305.5 225 310.2C224.3 311.4 223.8 312.7 223.4 314.1L219 316.3 219 321.3 223.4 323.5C223.8 324.9 224.3 326.2 225 327.4L223.4 332.1 226.9 335.6 231.6 334C232.8 334.7 234.1 335.2 235.5 335.6L237.7 340 242.7 340 244.9 335.6C246.3 335.2 247.6 334.7 248.8 334L253.5 335.6 257.1 332.1 255.5 327.4C256.2 326.2 256.8 324.8 257.2 323.5L261.6 321.3 261.6 316.3 257.2 314.1Z" fill="#E0144C"/><path d="M217.7 362.7C213.5 362.7 210.2 359.3 210.2 355.2 210.2 351 213.6 347.7 217.7 347.7 221.9 347.7 225.2 351.1 225.2 355.2 225.2 359.3 221.9 362.7 217.7 362.7L217.7 362.7ZM233 346.6 234.6 341.9 231 338.3 226.3 339.9C225.1 339.2 223.7 338.7 222.4 338.3L220.2 333.9 215.2 333.9 213 338.3C211.6 338.7 210.3 339.2 209.1 339.9L204.4 338.3 200.9 341.8 202.4 346.5C201.7 347.7 201.2 349.1 200.8 350.4L196.4 352.6 196.4 357.6 200.8 359.8C201.2 361.2 201.7 362.5 202.4 363.7L200.9 368.4 204.4 371.9 209.1 370.4C210.3 371.1 211.6 371.6 213 372L215.2 376.4 220.2 376.4 222.4 372C223.8 371.6 225.1 371.1 226.3 370.4L231 372 234.5 368.4 233 363.8C233.7 362.6 234.2 361.3 234.6 359.9L239 357.7 239 352.7 234.6 350.5C234.2 349.1 233.7 347.8 233 346.6Z" fill="#E0144C"/></g></svg>