<svg width="96" height="96" xmlns="http://www.w3.org/2000/svg" xmlns:xlink="http://www.w3.org/1999/xlink" xml:space="preserve" overflow="hidden"><g transform="translate(-327 -282)"><path d="M386.3 319.3C382.1 319.3 378.8 315.9 378.8 311.8 378.8 307.7 382.2 304.3 386.3 304.3 390.5 304.3 393.8 307.7 393.8 311.8 393.8 315.9 390.4 319.3 386.3 319.3ZM403.2 307.1C402.8 305.7 402.3 304.4 401.6 303.2L403.2 298.5 399.6 294.9 394.9 296.5C393.7 295.8 392.4 295.3 391 294.9L388.8 290.5 383.8 290.5 381.6 294.9C380.2 295.3 378.9 295.8 377.7 296.5L373 294.9 369.4 298.5 371 303.2C370.3 304.4 369.8 305.7 369.4 307.1L365 309.3 365 314.3 369.4 316.5C369.8 317.9 370.3 319.2 371 320.4L369.4 325.1 372.9 328.6 377.6 327C378.8 327.7 380.1 328.2 381.5 328.6L383.7 333 388.7 333 390.9 328.6C392.3 328.2 393.6 327.7 394.8 327L399.5 328.6 403.1 325.1 401.5 320.4C402.2 319.2 402.8 317.8 403.2 316.5L407.6 314.3 407.6 309.3 403.2 307.1Z" fill="#FFFFFF"/><path d="M363.7 355.7C359.5 355.7 356.2 352.3 356.2 348.2 356.2 344 359.6 340.7 363.7 340.7 367.9 340.7 371.2 344.1 371.2 348.2 371.2 352.3 367.9 355.7 363.7 355.7L363.7 355.7ZM379 339.6 380.6 334.9 377 331.3 372.3 332.9C371.1 332.2 369.7 331.7 368.4 331.3L366.2 326.9 361.2 326.9 359 331.3C357.6 331.7 356.3 332.2 355.1 332.9L350.4 331.3 346.9 334.8 348.4 339.5C347.7 340.7 347.2 342.1 346.8 343.4L342.4 345.6 342.4 350.6 346.8 352.8C347.2 354.2 347.7 355.5 348.4 356.7L346.9 361.4 350.4 364.9 355.1 363.4C356.3 364.1 357.6 364.6 359 365L361.2 369.4 366.2 369.4 368.4 365C369.8 364.6 371.1 364.1 372.3 363.4L377 365 380.5 361.4 379 356.8C379.7 355.6 380.2 354.3 380.6 352.9L385 350.7 385 345.7 380.6 343.5C380.2 342.1 379.7 340.8 379 339.6Z" fill="#FFFFFF"/></g></svg>