<svg width="96" height="96" xmlns="http://www.w3.org/2000/svg" xmlns:xlink="http://www.w3.org/1999/xlink" xml:space="preserve" overflow="hidden"><g transform="translate(-6 -289)"><path d="M65.3 326.3C61.1 326.3 57.8 322.9 57.8 318.8 57.8 314.7 61.2 311.3 65.3 311.3 69.5 311.3 72.8 314.7 72.8 318.8 72.8 322.9 69.4 326.3 65.3 326.3ZM82.2 314.1C81.8 312.7 81.3 311.4 80.6 310.2L82.2 305.5 78.6 301.9 73.9 303.5C72.7 302.8 71.4 302.3 70 301.9L67.8 297.5 62.8 297.5 60.6 301.9C59.2 302.3 57.9 302.8 56.7 303.5L52 301.9 48.4 305.5 50 310.2C49.3 311.4 48.8 312.7 48.4 314.1L44 316.3 44 321.3 48.4 323.5C48.8 324.9 49.3 326.2 50 327.4L48.4 332.1 51.9 335.6 56.6 334C57.8 334.7 59.1 335.2 60.5 335.6L62.7 340 67.7 340 69.9 335.6C71.3 335.2 72.6 334.7 73.8 334L78.5 335.6 82.1 332.1 80.5 327.4C81.2 326.2 81.8 324.8 82.2 323.5L86.6 321.3 86.6 316.3 82.2 314.1Z" fill="#8FAADC"/><path d="M42.7 362.7C38.5 362.7 35.2 359.3 35.2 355.2 35.2 351 38.6 347.7 42.7 347.7 46.9 347.7 50.2 351.1 50.2 355.2 50.2 359.3 46.9 362.7 42.7 362.7L42.7 362.7ZM58 346.6 59.6 341.9 56 338.3 51.3 339.9C50.1 339.2 48.7 338.7 47.4 338.3L45.2 333.9 40.2 333.9 38 338.3C36.6 338.7 35.3 339.2 34.1 339.9L29.4 338.3 25.9 341.8 27.4 346.5C26.7 347.7 26.2 349.1 25.8 350.4L21.4 352.6 21.4 357.6 25.8 359.8C26.2 361.2 26.7 362.5 27.4 363.7L25.9 368.4 29.4 371.9 34.1 370.4C35.3 371.1 36.6 371.6 38 372L40.2 376.4 45.2 376.4 47.4 372C48.8 371.6 50.1 371.1 51.3 370.4L56 372 59.5 368.4 58 363.8C58.7 362.6 59.2 361.3 59.6 359.9L64 357.7 64 352.7 59.6 350.5C59.2 349.1 58.7 347.8 58 346.6Z" fill="#8FAADC"/></g></svg>