<svg width="96" height="96" xmlns="http://www.w3.org/2000/svg" xmlns:xlink="http://www.w3.org/1999/xlink" xml:space="preserve" overflow="hidden"><g transform="translate(-331 -117)"><path d="M379 161C374 161 370 157 370 152 370 147 374 143 379 143 384 143 388 147 388 152 388 157 384 161 379 161ZM379 131C372.1 131 365.6 134.4 361.7 140.2 357.8 145.9 357 153.2 359.5 159.7L369 180.7 377.2 197.9C377.5 198.6 378.2 199 379 199 379.8 199 380.5 198.6 380.8 197.9L389 180.7 398.5 159.7C401 153.2 400.2 145.9 396.3 140.2 392.4 134.4 385.9 131 379 131Z" fill="#FFFFFF"/></g></svg>