<svg width="96" height="96" xmlns="http://www.w3.org/2000/svg" xmlns:xlink="http://www.w3.org/1999/xlink" xml:space="preserve" overflow="hidden"><g transform="translate(-185 -124)"><path d="M233 168C228 168 224 164 224 159 224 154 228 150 233 150 238 150 242 154 242 159 242 164 238 168 233 168ZM233 138C226.1 138 219.6 141.4 215.7 147.2 211.8 152.9 211 160.2 213.5 166.7L223 187.7 231.2 204.9C231.5 205.6 232.2 206 233 206 233.8 206 234.5 205.6 234.8 204.9L243 187.7 252.5 166.7C255 160.2 254.2 152.9 250.3 147.2 246.4 141.4 239.9 138 233 138Z" fill="#E0144C"/></g></svg>