<svg width="96" height="96" xmlns="http://www.w3.org/2000/svg" xmlns:xlink="http://www.w3.org/1999/xlink" xml:space="preserve" overflow="hidden"><g transform="translate(-10 -124)"><path d="M58 168C53 168 49 164 49 159 49 154 53 150 58 150 63 150 67 154 67 159 67 164 63 168 58 168ZM58 138C51.1 138 44.6 141.4 40.7 147.2 36.8 152.9 36 160.2 38.5 166.7L48 187.7 56.2 204.9C56.5 205.6 57.2 206 58 206 58.8 206 59.5 205.6 59.8 204.9L68 187.7 77.5 166.7C80 160.2 79.2 152.9 75.3 147.2 71.4 141.4 64.9 138 58 138Z" fill="#8FAADC"/></g></svg>