<svg width="92" height="92" xmlns="http://www.w3.org/2000/svg" xmlns:xlink="http://www.w3.org/1999/xlink" xml:space="preserve" overflow="hidden"><g transform="translate(-10 -45)"><path d="M91.9375 117.45 79.9583 105.471C78.3292 103.842 76.125 103.267 74.0167 103.65L69.8 99.4333C73.5375 94.6417 75.7417 88.5083 75.7417 81.9917 75.7417 66.1792 62.8042 53.2417 46.9917 53.2417 31.1792 53.2417 18.2417 66.1792 18.2417 81.9917 18.2417 97.8042 31.1792 110.742 46.9917 110.742 53.5083 110.742 59.5458 108.538 64.4333 104.8L68.65 109.017C68.2667 111.125 68.8417 113.329 70.4708 114.958L82.45 126.938C83.7917 128.279 85.5167 128.95 87.2417 128.95 88.9667 128.95 90.6917 128.279 92.0333 126.938 94.525 124.254 94.525 120.037 91.9375 117.45ZM46.8958 104.896C34.2458 104.896 23.8958 94.5458 23.8958 81.8958 23.8958 69.2458 34.2458 58.8958 46.8958 58.8958 59.5458 58.8958 69.8958 69.2458 69.8958 81.8958 69.8958 94.5458 59.5458 104.896 46.8958 104.896Z" fill="#8FAADC"/></g></svg>