<svg width="92" height="92" xmlns="http://www.w3.org/2000/svg" xmlns:xlink="http://www.w3.org/1999/xlink" xml:space="preserve" overflow="hidden"><g transform="translate(-185 -45)"><path d="M266.938 117.45 254.958 105.471C253.329 103.842 251.125 103.267 249.017 103.65L244.8 99.4333C248.538 94.6417 250.742 88.5083 250.742 81.9917 250.742 66.1792 237.804 53.2417 221.992 53.2417 206.179 53.2417 193.242 66.1792 193.242 81.9917 193.242 97.8042 206.179 110.742 221.992 110.742 228.508 110.742 234.546 108.538 239.433 104.8L243.65 109.017C243.267 111.125 243.842 113.329 245.471 114.958L257.45 126.938C258.792 128.279 260.517 128.95 262.242 128.95 263.967 128.95 265.692 128.279 267.033 126.938 269.525 124.254 269.525 120.037 266.938 117.45ZM221.896 104.896C209.246 104.896 198.896 94.5458 198.896 81.8958 198.896 69.2458 209.246 58.8958 221.896 58.8958 234.546 58.8958 244.896 69.2458 244.896 81.8958 244.896 94.5458 234.546 104.896 221.896 104.896Z" fill="#E0144C"/></g></svg>