<svg width="92" height="93" xmlns="http://www.w3.org/2000/svg" xmlns:xlink="http://www.w3.org/1999/xlink" xml:space="preserve" overflow="hidden"><g transform="translate(-331 -38)"><path d="M81.9375 72.45 69.9583 60.4708C68.3292 58.8417 66.125 58.2667 64.0167 58.65L59.8 54.4333C63.5375 49.6417 65.7417 43.5083 65.7417 36.9917 65.7417 21.1792 52.8042 8.24167 36.9917 8.24167 21.1792 8.24167 8.24167 21.1792 8.24167 36.9917 8.24167 52.8042 21.1792 65.7417 36.9917 65.7417 43.5083 65.7417 49.5458 63.5375 54.4333 59.8L58.65 64.0167C58.2667 66.125 58.8417 68.3292 60.4708 69.9583L72.45 81.9375C73.7917 83.2792 75.5167 83.95 77.2417 83.95 78.9667 83.95 80.6917 83.2792 82.0333 81.9375 84.525 79.2542 84.525 75.0375 81.9375 72.45ZM36.8958 59.8958C24.2458 59.8958 13.8958 49.5458 13.8958 36.8958 13.8958 24.2458 24.2458 13.8958 36.8958 13.8958 49.5458 13.8958 59.8958 24.2458 59.8958 36.8958 59.8958 49.5458 49.5458 59.8958 36.8958 59.8958Z" fill="#FFFFFF" transform="matrix(1 0 0 1.01087 331 38)"/></g></svg>